<?xml version="1.0" encoding="utf-8"?>
<!-- Generator: Adobe Illustrator 21.1.0, SVG Export Plug-In . SVG Version: 6.00 Build 0)  -->
<svg version="1.1" id="Layer_1" xmlns="http://www.w3.org/2000/svg" xmlns:xlink="http://www.w3.org/1999/xlink" x="0px" y="0px"
	 viewBox="0 0 1728 1728" style="enable-background:new 0 0 1728 1728;" xml:space="preserve">
<style type="text/css">
	.st0{fill:none;stroke:#010101;stroke-miterlimit:10;}
	.st1{fill:none;stroke:#000000;stroke-miterlimit:10;}
</style>
<g>
	<circle class="st0" cx="443.5" cy="572.4" r="11.3"/>
	<circle class="st0" cx="312.4" cy="437.4" r="11.2"/>
	<circle class="st0" cx="574.6" cy="437.4" r="11.2"/>
	<path class="st0" d="M542.3,649.6V525.2l60.8-40.8c1.4-0.9,2.8-1.8,4.1-2.7l0.7-0.5l0,0c13.2-10.1,21.7-25.9,21.7-43.7
		c0-30.4-24.7-55.1-55.1-55.1c-5.9,0-11.6,1-16.9,2.7c-35.2,9.4-57.5,38-114.2,38c-56.7,0-79-28.6-114.2-38
		c-5.3-1.7-11-2.7-16.9-2.7c-30.4,0-55.1,24.7-55.1,55.1c0,17.8,8.6,33.7,21.7,43.7l0,0l0.7,0.5c1.3,1,2.7,1.9,4.1,2.7l60.8,40.8
		v124.4L213.5,892.9v144l0,316.1h109.1l-1.1-352.1h352.1v-108L542.3,649.6z"/>
	<circle class="st0" cx="385.4" cy="946.9" r="10.4"/>
	<circle class="st0" cx="584.7" cy="946.9" r="10.4"/>
	<circle class="st0" cx="267.5" cy="1080.4" r="10.4"/>
	<circle class="st0" cx="267.5" cy="1279.7" r="10.4"/>
</g>
<g>
	<circle class="st0" cx="1122.1" cy="941" r="10.4"/>
	<circle class="st0" cx="1446.7" cy="941" r="10.4"/>
</g>
<circle class="st0" cx="1338.4" cy="1073.8" r="10.4"/>
<circle class="st0" cx="1338.4" cy="1273.8" r="10.4"/>
<circle class="st0" cx="1230.4" cy="1073.8" r="10.4"/>
<circle class="st0" cx="1230.4" cy="1273.8" r="10.4"/>
<path class="st0" d="M1383.3,643.7V519.3l60.8-40.8c1.4-0.9,2.8-1.8,4.1-2.7l0.7-0.5l0,0c13.2-10.1,21.7-25.9,21.7-43.7
	c0-30.4-24.7-55.1-55.1-55.1c-5.9,0-11.6,1-16.9,2.7c-35.2,9.4-57.5,38-114.2,38c-56.7,0-79-28.6-114.2-38c-5.3-1.7-11-2.7-16.9-2.7
	c-30.4,0-55.1,24.7-55.1,55.1c0,17.8,8.6,33.7,21.7,43.7l0,0l0.7,0.5c1.3,1,2.7,1.9,4.1,2.7l60.8,40.8v124.4L1054.4,887v108l122.1,0
	l0,352.1h216l0-352.1l122.1,0V887L1383.3,643.7z"/>
<circle class="st0" cx="1284.4" cy="566.5" r="11.3"/>
<circle class="st0" cx="1153.4" cy="431.4" r="11.2"/>
<circle class="st0" cx="1415.5" cy="431.4" r="11.2"/>
<g>
	<circle class="st0" cx="867.3" cy="887.7" r="11.3"/>
	<circle class="st0" cx="736.2" cy="752.7" r="11.2"/>
	<circle class="st0" cx="998.3" cy="752.7" r="11.2"/>
	<path class="st0" d="M966.1,876.4v-35.9l60.8-40.8c1.4-0.9,2.8-1.8,4.1-2.7l0.7-0.5l0,0c12.6-9.6,21-24.6,21.7-41.5
		c1.2-28.7-21.3-54.5-49.9-57.1c-7.7-0.7-15.1,0.2-22,2.4c-35.2,9.4-57.5,38-114.2,38c-56.7,0-79-28.6-114.2-38
		c-6.8-2.2-14.3-3.2-22-2.4c-28.6,2.7-51.1,28.4-49.9,57.1c0.7,16.9,9.1,31.8,21.7,41.5l0,0l0.7,0.5c1.3,1,2.7,1.9,4.1,2.7
		l60.8,40.8v35.9c0,41.2,33.4,74.7,74.7,74.7h48.3C932.6,951.1,966.1,917.6,966.1,876.4z"/>
</g>
<g>
	<circle class="st0" cx="867.3" cy="578.3" r="11.3"/>
	<circle class="st0" cx="736.2" cy="443.3" r="11.2"/>
	<circle class="st0" cx="998.3" cy="443.3" r="11.2"/>
	<path class="st0" d="M966.1,567v-35.9l60.8-40.8c1.4-0.9,2.8-1.8,4.1-2.7l0.7-0.5l0,0c12.6-9.6,21-24.6,21.7-41.5
		c1.2-28.7-21.3-54.5-49.9-57.1c-7.7-0.7-15.1,0.2-22,2.4c-35.2,9.4-57.5,38-114.2,38c-56.7,0-79-28.6-114.2-38
		c-6.8-2.2-14.3-3.2-22-2.4c-28.6,2.7-51.1,28.4-49.9,57.1c0.7,16.9,9.1,31.8,21.7,41.5l0,0l0.7,0.5c1.3,1,2.7,1.9,4.1,2.7
		l60.8,40.8V567c0,41.2,33.4,74.7,74.7,74.7h48.3C932.6,641.7,966.1,608.2,966.1,567z"/>
</g>
<g>
	<path class="st1" d="M405.1,1133.7h-9.2v-3.3h22.4v3.3H409v27h-4V1133.7z"/>
	<path class="st1" d="M421.2,1128.8h4v13.6h0.1c0.6-1.1,1.6-2.2,2.8-2.8c1.2-0.7,2.6-1.1,4-1.1c2.9,0,7.6,1.8,7.6,9.3v12.9h-4v-12.5
		c0-3.5-1.3-6.4-5-6.4c-2.6,0-4.5,1.8-5.3,3.9c-0.2,0.6-0.3,1.2-0.3,1.9v13.1h-4V1128.8z"/>
	<path class="st1" d="M448.4,1150.5c0.1,5.3,3.5,7.6,7.5,7.6c2.8,0,4.6-0.5,6-1.1l0.7,2.8c-1.4,0.6-3.8,1.4-7.3,1.4
		c-6.7,0-10.7-4.5-10.7-11c0-6.6,3.9-11.7,10.2-11.7c7.1,0,9,6.2,9,10.2c0,0.8,0,1.4-0.1,1.8H448.4z M459.9,1147.7
		c0-2.5-1-6.4-5.5-6.4c-4,0-5.8,3.6-6.1,6.4H459.9z"/>
	<path class="st1" d="M478.2,1128.8h3.9v13.7h0.1c1.4-2.4,3.9-4,7.4-4c5.4,0,9.2,4.5,9.2,11.1c0,7.8-4.9,11.6-9.8,11.6
		c-3.1,0-5.7-1.2-7.3-4h-0.1l-0.2,3.6H478c0.1-1.5,0.2-3.7,0.2-5.6V1128.8z M482.1,1152c0,0.5,0,1,0.2,1.4c0.7,2.7,3.1,4.6,5.9,4.6
		c4.2,0,6.6-3.4,6.6-8.4c0-4.4-2.2-8.1-6.5-8.1c-2.7,0-5.2,1.9-6,4.9c-0.1,0.5-0.2,1-0.2,1.7V1152z"/>
	<path class="st1" d="M523.5,1149.6c0,8-5.6,11.6-10.8,11.6c-5.8,0-10.4-4.3-10.4-11.2c0-7.2,4.8-11.5,10.8-11.5
		C519.2,1138.5,523.5,1143,523.5,1149.6z M506.3,1149.8c0,4.8,2.7,8.4,6.6,8.4c3.8,0,6.6-3.6,6.6-8.5c0-3.7-1.8-8.3-6.5-8.3
		C508.3,1141.4,506.3,1145.8,506.3,1149.8z"/>
	<path class="st1" d="M533.2,1133.7v5.2h5.7v3h-5.7v11.7c0,2.7,0.8,4.2,3,4.2c1.1,0,1.7-0.1,2.3-0.3l0.2,3c-0.8,0.3-2,0.5-3.5,0.5
		c-1.8,0-3.3-0.6-4.3-1.7c-1.1-1.2-1.5-3.1-1.5-5.7v-11.9H526v-3h3.4v-4L533.2,1133.7z"/>
	<path class="st1" d="M548.1,1133.7v5.2h5.7v3h-5.7v11.7c0,2.7,0.8,4.2,3,4.2c1.1,0,1.7-0.1,2.3-0.3l0.2,3c-0.8,0.3-2,0.5-3.5,0.5
		c-1.8,0-3.3-0.6-4.3-1.7c-1.1-1.2-1.5-3.1-1.5-5.7v-11.9h-3.4v-3h3.4v-4L548.1,1133.7z"/>
	<path class="st1" d="M577.6,1149.6c0,8-5.6,11.6-10.8,11.6c-5.8,0-10.4-4.3-10.4-11.2c0-7.2,4.8-11.5,10.8-11.5
		C573.4,1138.5,577.6,1143,577.6,1149.6z M560.4,1149.8c0,4.8,2.7,8.4,6.6,8.4c3.8,0,6.6-3.6,6.6-8.5c0-3.7-1.8-8.3-6.5-8.3
		C562.4,1141.4,560.4,1145.8,560.4,1149.8z"/>
	<path class="st1" d="M582.6,1144.8c0-2.3-0.1-4.1-0.2-5.9h3.5l0.2,3.6h0.1c1.2-2.1,3.2-4,6.9-4c2.9,0,5.2,1.8,6.1,4.4h0.1
		c0.7-1.3,1.6-2.2,2.5-2.8c1.3-1,2.7-1.5,4.8-1.5c2.9,0,7.2,1.9,7.2,9.4v12.8h-3.9v-12.3c0-4.2-1.6-6.7-4.7-6.7
		c-2.3,0-4,1.7-4.7,3.6c-0.2,0.6-0.3,1.3-0.3,2v13.4h-3.9v-13c0-3.5-1.5-5.9-4.5-5.9c-2.4,0-4.3,2-4.9,4c-0.2,0.5-0.3,1.3-0.3,1.9
		v13.1h-3.9V1144.8z"/>
	<path class="st1" d="M644.9,1155.5c0,1.9,0.1,3.7,0.3,5.2h-3.6l-0.3-2.7h-0.1c-1.2,1.7-3.6,3.2-6.7,3.2c-4.4,0-6.7-3.1-6.7-6.2
		c0-5.3,4.7-8.1,13.1-8.1v-0.4c0-1.8-0.5-5-4.9-5c-2.1,0-4.2,0.6-5.7,1.6l-0.9-2.7c1.8-1.1,4.5-1.9,7.2-1.9c6.7,0,8.3,4.5,8.3,8.9
		V1155.5z M641.1,1149.6c-4.3-0.1-9.2,0.7-9.2,4.9c0,2.6,1.7,3.8,3.7,3.8c2.9,0,4.7-1.8,5.3-3.6c0.1-0.5,0.2-0.9,0.2-1.3V1149.6z"/>
	<path class="st1" d="M651.3,1145.7c0-2.6,0-4.8-0.2-6.8h3.5l0.2,4.3h0.1c1-2.9,3.4-4.8,6.1-4.8c0.4,0,0.7,0,1.1,0.1v3.7
		c-0.4-0.1-0.8-0.1-1.3-0.1c-2.8,0-4.8,2.1-5.3,5c-0.1,0.5-0.1,1.2-0.1,1.8v11.6h-4V1145.7z"/>
	<path class="st1" d="M667.8,1150.5c0.1,5.3,3.5,7.6,7.5,7.6c2.8,0,4.6-0.5,6-1.1l0.7,2.8c-1.4,0.6-3.8,1.4-7.3,1.4
		c-6.7,0-10.7-4.5-10.7-11c0-6.6,3.9-11.7,10.2-11.7c7.1,0,9,6.2,9,10.2c0,0.8,0,1.4-0.1,1.8H667.8z M679.4,1147.7
		c0-2.5-1-6.4-5.5-6.4c-4,0-5.8,3.6-6.1,6.4H679.4z"/>
	<path class="st1" d="M703.4,1155.5c0,1.9,0.1,3.7,0.3,5.2h-3.6l-0.3-2.7h-0.1c-1.2,1.7-3.6,3.2-6.7,3.2c-4.4,0-6.7-3.1-6.7-6.2
		c0-5.3,4.7-8.1,13.1-8.1v-0.4c0-1.8-0.5-5-4.9-5c-2.1,0-4.2,0.6-5.7,1.6l-0.9-2.7c1.8-1.1,4.5-1.9,7.2-1.9c6.7,0,8.3,4.5,8.3,8.9
		V1155.5z M699.6,1149.6c-4.3-0.1-9.2,0.7-9.2,4.9c0,2.6,1.7,3.8,3.7,3.8c2.9,0,4.7-1.8,5.3-3.6c0.1-0.5,0.2-0.9,0.2-1.3V1149.6z"/>
	<path class="st1" d="M734.6,1155.5c0,1.9,0.1,3.7,0.3,5.2h-3.6l-0.3-2.7h-0.1c-1.2,1.7-3.6,3.2-6.7,3.2c-4.4,0-6.7-3.1-6.7-6.2
		c0-5.3,4.7-8.1,13.1-8.1v-0.4c0-1.8-0.5-5-4.9-5c-2.1,0-4.2,0.6-5.7,1.6l-0.9-2.7c1.8-1.1,4.5-1.9,7.2-1.9c6.7,0,8.3,4.5,8.3,8.9
		V1155.5z M730.8,1149.6c-4.3-0.1-9.2,0.7-9.2,4.9c0,2.6,1.7,3.8,3.7,3.8c2.9,0,4.7-1.8,5.3-3.6c0.1-0.5,0.2-0.9,0.2-1.3V1149.6z"/>
	<path class="st1" d="M745.5,1133.7v5.2h5.7v3h-5.7v11.7c0,2.7,0.8,4.2,3,4.2c1.1,0,1.7-0.1,2.3-0.3l0.2,3c-0.8,0.3-2,0.5-3.5,0.5
		c-1.8,0-3.3-0.6-4.3-1.7c-1.1-1.2-1.5-3.1-1.5-5.7v-11.9h-3.4v-3h3.4v-4L745.5,1133.7z"/>
	<path class="st1" d="M760.4,1133.7v5.2h5.7v3h-5.7v11.7c0,2.7,0.8,4.2,3,4.2c1.1,0,1.7-0.1,2.3-0.3l0.2,3c-0.8,0.3-2,0.5-3.5,0.5
		c-1.8,0-3.3-0.6-4.3-1.7c-1.1-1.2-1.5-3.1-1.5-5.7v-11.9h-3.4v-3h3.4v-4L760.4,1133.7z"/>
	<path class="st1" d="M785.8,1155.5c0,1.9,0.1,3.7,0.3,5.2h-3.6l-0.3-2.7h-0.1c-1.2,1.7-3.6,3.2-6.7,3.2c-4.4,0-6.7-3.1-6.7-6.2
		c0-5.3,4.7-8.1,13.1-8.1v-0.4c0-1.8-0.5-5-4.9-5c-2.1,0-4.2,0.6-5.7,1.6l-0.9-2.7c1.8-1.1,4.5-1.9,7.2-1.9c6.7,0,8.3,4.5,8.3,8.9
		V1155.5z M782,1149.6c-4.3-0.1-9.2,0.7-9.2,4.9c0,2.6,1.7,3.8,3.7,3.8c2.9,0,4.7-1.8,5.3-3.6c0.1-0.5,0.2-0.9,0.2-1.3V1149.6z"/>
	<path class="st1" d="M807.7,1159.9c-1,0.5-3.3,1.3-6.2,1.3c-6.6,0-10.8-4.5-10.8-11.1c0-6.7,4.6-11.6,11.7-11.6
		c2.3,0,4.4,0.6,5.5,1.2l-0.9,3c-0.9-0.5-2.4-1-4.6-1c-5,0-7.7,3.7-7.7,8.2c0,5,3.2,8.1,7.6,8.1c2.2,0,3.7-0.5,4.9-1L807.7,1159.9z"
		/>
	<path class="st1" d="M812.3,1128.8h4v13.6h0.1c0.6-1.1,1.6-2.2,2.8-2.8c1.2-0.7,2.6-1.1,4-1.1c2.9,0,7.6,1.8,7.6,9.3v12.9h-4v-12.5
		c0-3.5-1.3-6.4-5-6.4c-2.6,0-4.5,1.8-5.3,3.9c-0.2,0.6-0.3,1.2-0.3,1.9v13.1h-4V1128.8z"/>
	<path class="st1" d="M839.5,1150.5c0.1,5.3,3.5,7.6,7.5,7.6c2.8,0,4.6-0.5,6-1.1l0.7,2.8c-1.4,0.6-3.8,1.4-7.3,1.4
		c-6.7,0-10.7-4.5-10.7-11c0-6.6,3.9-11.7,10.2-11.7c7.1,0,9,6.2,9,10.2c0,0.8,0,1.4-0.1,1.8H839.5z M851.1,1147.7
		c0-2.5-1-6.4-5.5-6.4c-4,0-5.8,3.6-6.1,6.4H851.1z"/>
	<path class="st1" d="M859.3,1156.7c1.2,0.7,3.3,1.5,5.3,1.5c2.8,0,4.2-1.4,4.2-3.2c0-1.9-1.1-2.9-4-4c-4-1.4-5.8-3.6-5.8-6.2
		c0-3.5,2.9-6.4,7.5-6.4c2.2,0,4.1,0.6,5.3,1.3l-0.9,2.9c-0.9-0.5-2.4-1.3-4.5-1.3c-2.3,0-3.6,1.3-3.6,3c0,1.8,1.3,2.6,4.1,3.7
		c3.7,1.4,5.7,3.3,5.7,6.5c0,3.9-3,6.6-8.1,6.6c-2.4,0-4.6-0.6-6.1-1.5L859.3,1156.7z"/>
	<path class="st1" d="M891.9,1133.7v5.2h5.7v3h-5.7v11.7c0,2.7,0.8,4.2,3,4.2c1.1,0,1.7-0.1,2.3-0.3l0.2,3c-0.8,0.3-2,0.5-3.5,0.5
		c-1.8,0-3.3-0.6-4.3-1.7c-1.1-1.2-1.5-3.1-1.5-5.7v-11.9h-3.4v-3h3.4v-4L891.9,1133.7z"/>
	<path class="st1" d="M921.4,1149.6c0,8-5.6,11.6-10.8,11.6c-5.8,0-10.4-4.3-10.4-11.2c0-7.2,4.8-11.5,10.8-11.5
		C917.2,1138.5,921.4,1143,921.4,1149.6z M904.2,1149.8c0,4.8,2.7,8.4,6.6,8.4c3.8,0,6.6-3.6,6.6-8.5c0-3.7-1.8-8.3-6.5-8.3
		C906.3,1141.4,904.2,1145.8,904.2,1149.8z"/>
	<path class="st1" d="M954.7,1128.8v26.3c0,1.9,0.1,4.1,0.2,5.6h-3.5l-0.2-3.8h-0.1c-1.2,2.4-3.8,4.3-7.3,4.3
		c-5.3,0-9.4-4.5-9.4-11.1c0-7.2,4.5-11.6,9.8-11.6c3.4,0,5.6,1.6,6.6,3.3h0.1v-13H954.7z M950.8,1147.8c0-0.5,0-1.2-0.2-1.7
		c-0.6-2.5-2.7-4.5-5.7-4.5c-4.1,0-6.5,3.6-6.5,8.4c0,4.4,2.2,8,6.4,8c2.7,0,5.1-1.8,5.8-4.7c0.1-0.5,0.2-1.1,0.2-1.7V1147.8z"/>
	<path class="st1" d="M981,1149.6c0,8-5.6,11.6-10.8,11.6c-5.8,0-10.4-4.3-10.4-11.2c0-7.2,4.8-11.5,10.8-11.5
		C976.8,1138.5,981,1143,981,1149.6z M963.8,1149.8c0,4.8,2.7,8.4,6.6,8.4c3.8,0,6.6-3.6,6.6-8.5c0-3.7-1.8-8.3-6.5-8.3
		C965.8,1141.4,963.8,1145.8,963.8,1149.8z"/>
	<path class="st1" d="M1005.7,1149.6c0,8-5.6,11.6-10.8,11.6c-5.8,0-10.4-4.3-10.4-11.2c0-7.2,4.8-11.5,10.8-11.5
		C1001.5,1138.5,1005.7,1143,1005.7,1149.6z M988.5,1149.8c0,4.8,2.7,8.4,6.6,8.4c3.8,0,6.6-3.6,6.6-8.5c0-3.7-1.8-8.3-6.5-8.3
		C990.5,1141.4,988.5,1145.8,988.5,1149.8z"/>
	<path class="st1" d="M1010.7,1145.7c0-2.6,0-4.8-0.2-6.8h3.5l0.2,4.3h0.1c1-2.9,3.4-4.8,6.1-4.8c0.4,0,0.7,0,1.1,0.1v3.7
		c-0.4-0.1-0.8-0.1-1.3-0.1c-2.8,0-4.8,2.1-5.3,5c-0.1,0.5-0.1,1.2-0.1,1.8v11.6h-4V1145.7z"/>
	<path class="st1" d="M1035.3,1160.7v-18.7h-3v-3h3v-1c0-3.1,0.7-5.8,2.5-7.6c1.5-1.4,3.5-2,5.3-2c1.4,0,2.6,0.3,3.4,0.6l-0.5,3.1
		c-0.6-0.3-1.3-0.5-2.5-0.5c-3.4,0-4.2,2.9-4.2,6.3v1.2h5.3v3h-5.3v18.7H1035.3z"/>
	<path class="st1" d="M1048,1145.7c0-2.6,0-4.8-0.2-6.8h3.5l0.2,4.3h0.1c1-2.9,3.4-4.8,6.1-4.8c0.4,0,0.7,0,1.1,0.1v3.7
		c-0.4-0.1-0.8-0.1-1.3-0.1c-2.8,0-4.8,2.1-5.3,5c-0.1,0.5-0.1,1.2-0.1,1.8v11.6h-4V1145.7z"/>
	<path class="st1" d="M1077.8,1155.5c0,1.9,0.1,3.7,0.3,5.2h-3.6l-0.3-2.7h-0.1c-1.2,1.7-3.6,3.2-6.7,3.2c-4.4,0-6.7-3.1-6.7-6.2
		c0-5.3,4.7-8.1,13.1-8.1v-0.4c0-1.8-0.5-5-4.9-5c-2.1,0-4.2,0.6-5.7,1.6l-0.9-2.7c1.8-1.1,4.5-1.9,7.2-1.9c6.7,0,8.3,4.5,8.3,8.9
		V1155.5z M1074,1149.6c-4.3-0.1-9.2,0.7-9.2,4.9c0,2.6,1.7,3.8,3.7,3.8c2.9,0,4.7-1.8,5.3-3.6c0.1-0.5,0.2-0.9,0.2-1.3V1149.6z"/>
	<path class="st1" d="M1084.2,1144.8c0-2.3-0.1-4.1-0.2-5.9h3.5l0.2,3.6h0.1c1.2-2.1,3.2-4,6.9-4c2.9,0,5.2,1.8,6.1,4.4h0.1
		c0.7-1.3,1.6-2.2,2.5-2.8c1.3-1,2.7-1.5,4.8-1.5c2.9,0,7.2,1.9,7.2,9.4v12.8h-3.9v-12.3c0-4.2-1.6-6.7-4.7-6.7
		c-2.3,0-4,1.7-4.7,3.6c-0.2,0.6-0.3,1.3-0.3,2v13.4h-3.9v-13c0-3.5-1.5-5.9-4.5-5.9c-2.4,0-4.3,2-4.9,4c-0.2,0.5-0.3,1.3-0.3,1.9
		v13.1h-3.9V1144.8z"/>
	<path class="st1" d="M1123.9,1150.5c0.1,5.3,3.5,7.6,7.5,7.6c2.8,0,4.6-0.5,6-1.1l0.7,2.8c-1.4,0.6-3.8,1.4-7.3,1.4
		c-6.7,0-10.7-4.5-10.7-11c0-6.6,3.9-11.7,10.2-11.7c7.1,0,9,6.2,9,10.2c0,0.8,0,1.4-0.1,1.8H1123.9z M1135.5,1147.7
		c0-2.5-1-6.4-5.5-6.4c-4,0-5.8,3.6-6.1,6.4H1135.5z"/>
	<path class="st1" d="M399.2,1198.8c0-2.3-0.1-4.1-0.2-5.9h3.5l0.2,3.6h0.1c1.2-2.1,3.2-4,6.9-4c2.9,0,5.2,1.8,6.1,4.4h0.1
		c0.7-1.3,1.6-2.2,2.5-2.8c1.3-1,2.7-1.5,4.8-1.5c2.9,0,7.2,1.9,7.2,9.4v12.8h-3.9v-12.3c0-4.2-1.6-6.7-4.7-6.7
		c-2.3,0-4,1.7-4.7,3.6c-0.2,0.6-0.3,1.3-0.3,2v13.4h-3.9v-13c0-3.5-1.5-5.9-4.5-5.9c-2.4,0-4.3,2-4.9,4c-0.2,0.5-0.3,1.3-0.3,1.9
		v13.1h-3.9V1198.8z"/>
	<path class="st1" d="M456.4,1203.6c0,8-5.6,11.6-10.8,11.6c-5.8,0-10.4-4.3-10.4-11.2c0-7.2,4.8-11.5,10.8-11.5
		C452.1,1192.4,456.4,1197,456.4,1203.6z M439.1,1203.8c0,4.8,2.7,8.4,6.6,8.4c3.8,0,6.6-3.6,6.6-8.5c0-3.7-1.8-8.3-6.5-8.3
		C441.2,1195.4,439.1,1199.7,439.1,1203.8z"/>
	<path class="st1" d="M480.1,1182.7v26.3c0,1.9,0.1,4.1,0.2,5.6h-3.5l-0.2-3.8h-0.1c-1.2,2.4-3.8,4.3-7.3,4.3
		c-5.3,0-9.4-4.5-9.4-11.1c0-7.2,4.5-11.6,9.8-11.6c3.4,0,5.6,1.6,6.6,3.3h0.1v-13H480.1z M476.2,1201.7c0-0.5,0-1.2-0.2-1.7
		c-0.6-2.5-2.7-4.5-5.7-4.5c-4.1,0-6.5,3.6-6.5,8.4c0,4.4,2.2,8,6.4,8c2.7,0,5.1-1.8,5.8-4.7c0.1-0.5,0.2-1.1,0.2-1.7V1201.7z"/>
	<path class="st1" d="M491.1,1186.8c0,1.3-0.9,2.4-2.5,2.4c-1.4,0-2.4-1.1-2.4-2.4s1-2.5,2.5-2.5
		C490.1,1184.3,491.1,1185.4,491.1,1186.8z M486.7,1214.6v-21.8h4v21.8H486.7z"/>
	<path class="st1" d="M497.6,1214.6v-18.7h-3v-3h3v-1c0-3.1,0.7-5.8,2.5-7.6c1.5-1.4,3.5-2,5.3-2c1.4,0,2.6,0.3,3.4,0.6l-0.5,3.1
		c-0.6-0.3-1.3-0.5-2.5-0.5c-3.4,0-4.2,2.9-4.2,6.3v1.2h5.3v3h-5.3v18.7H497.6z"/>
	<path class="st1" d="M511.8,1192.9l4.7,12.9c0.5,1.4,1.1,3.1,1.4,4.5h0.1c0.4-1.3,0.9-3,1.4-4.5l4.3-12.8h4.2l-5.9,15.5
		c-2.8,7.5-4.8,11.2-7.5,13.6c-2,1.7-3.9,2.3-4.9,2.5l-1-3.3c1-0.3,2.3-0.9,3.5-1.9c1.1-0.9,2.4-2.4,3.3-4.4
		c0.2-0.4,0.3-0.7,0.3-0.9c0-0.2-0.1-0.5-0.3-1l-8-20H511.8z"/>
	<path class="st1" d="M545.8,1187.7v5.2h5.7v3h-5.7v11.7c0,2.7,0.8,4.2,3,4.2c1.1,0,1.7-0.1,2.3-0.3l0.2,3c-0.8,0.3-2,0.5-3.5,0.5
		c-1.8,0-3.3-0.6-4.3-1.7c-1.1-1.2-1.5-3.1-1.5-5.7v-11.9h-3.4v-3h3.4v-4L545.8,1187.7z"/>
	<path class="st1" d="M575.3,1203.6c0,8-5.6,11.6-10.8,11.6c-5.8,0-10.4-4.3-10.4-11.2c0-7.2,4.8-11.5,10.8-11.5
		C571.1,1192.4,575.3,1197,575.3,1203.6z M558.1,1203.8c0,4.8,2.7,8.4,6.6,8.4c3.8,0,6.6-3.6,6.6-8.5c0-3.7-1.8-8.3-6.5-8.3
		C560.2,1195.4,558.1,1199.7,558.1,1203.8z"/>
	<path class="st1" d="M589.9,1198.8c0-2.3-0.1-4.1-0.2-5.9h3.5l0.2,3.6h0.1c1.2-2.1,3.2-4,6.9-4c2.9,0,5.2,1.8,6.1,4.4h0.1
		c0.7-1.3,1.6-2.2,2.5-2.8c1.3-1,2.7-1.5,4.8-1.5c2.9,0,7.2,1.9,7.2,9.4v12.8h-3.9v-12.3c0-4.2-1.6-6.7-4.7-6.7
		c-2.3,0-4,1.7-4.7,3.6c-0.2,0.6-0.3,1.3-0.3,2v13.4h-3.9v-13c0-3.5-1.5-5.9-4.5-5.9c-2.4,0-4.3,2-4.9,4c-0.2,0.5-0.3,1.3-0.3,1.9
		v13.1h-3.9V1198.8z"/>
	<path class="st1" d="M642.6,1209.4c0,1.9,0.1,3.7,0.3,5.2h-3.6l-0.3-2.7H639c-1.2,1.7-3.6,3.2-6.7,3.2c-4.4,0-6.7-3.1-6.7-6.2
		c0-5.3,4.7-8.1,13.1-8.1v-0.4c0-1.8-0.5-5-4.9-5c-2.1,0-4.2,0.6-5.7,1.6l-0.9-2.7c1.8-1.1,4.5-1.9,7.2-1.9c6.7,0,8.3,4.5,8.3,8.9
		V1209.4z M638.8,1203.5c-4.3-0.1-9.2,0.7-9.2,4.9c0,2.6,1.7,3.8,3.7,3.8c2.9,0,4.7-1.8,5.3-3.6c0.1-0.5,0.2-0.9,0.2-1.3V1203.5z"/>
	<path class="st1" d="M653.6,1187.7v5.2h5.7v3h-5.7v11.7c0,2.7,0.8,4.2,3,4.2c1.1,0,1.7-0.1,2.3-0.3l0.2,3c-0.8,0.3-2,0.5-3.5,0.5
		c-1.8,0-3.3-0.6-4.3-1.7c-1.1-1.2-1.5-3.1-1.5-5.7v-11.9h-3.4v-3h3.4v-4L653.6,1187.7z"/>
	<path class="st1" d="M679,1213.9c-1,0.5-3.3,1.3-6.2,1.3c-6.6,0-10.8-4.5-10.8-11.1c0-6.7,4.6-11.6,11.7-11.6
		c2.3,0,4.4,0.6,5.5,1.2l-0.9,3c-0.9-0.5-2.4-1-4.6-1c-5,0-7.7,3.7-7.7,8.2c0,5,3.2,8.1,7.6,8.1c2.2,0,3.7-0.5,4.9-1L679,1213.9z"/>
	<path class="st1" d="M683.6,1182.7h4v13.6h0.1c0.6-1.1,1.6-2.2,2.8-2.8c1.2-0.7,2.6-1.1,4-1.1c2.9,0,7.6,1.8,7.6,9.3v12.9h-4v-12.5
		c0-3.5-1.3-6.4-5-6.4c-2.6,0-4.5,1.8-5.3,3.9c-0.2,0.6-0.3,1.2-0.3,1.9v13.1h-4V1182.7z"/>
	<path class="st1" d="M719.5,1192.9l4.7,12.9c0.5,1.4,1.1,3.1,1.4,4.5h0.1c0.4-1.3,0.9-3,1.4-4.5l4.3-12.8h4.2l-5.9,15.5
		c-2.8,7.5-4.8,11.2-7.5,13.6c-2,1.7-3.9,2.3-4.9,2.5l-1-3.3c1-0.3,2.3-0.9,3.5-1.9c1.1-0.9,2.4-2.4,3.3-4.4
		c0.2-0.4,0.3-0.7,0.3-0.9c0-0.2-0.1-0.5-0.3-1l-8-20H719.5z"/>
	<path class="st1" d="M758.5,1203.6c0,8-5.6,11.6-10.8,11.6c-5.8,0-10.4-4.3-10.4-11.2c0-7.2,4.8-11.5,10.8-11.5
		C754.3,1192.4,758.5,1197,758.5,1203.6z M741.3,1203.8c0,4.8,2.7,8.4,6.6,8.4c3.8,0,6.6-3.6,6.6-8.5c0-3.7-1.8-8.3-6.5-8.3
		C743.3,1195.4,741.3,1199.7,741.3,1203.8z"/>
	<path class="st1" d="M781.7,1208.6c0,2.3,0,4.3,0.2,6h-3.5l-0.2-3.6H778c-1,1.8-3.3,4-7.2,4c-3.4,0-7.5-1.9-7.5-9.5v-12.7h4v12
		c0,4.1,1.3,7,4.9,7c2.7,0,4.5-1.8,5.2-3.6c0.2-0.5,0.4-1.3,0.4-2v-13.3h4V1208.6z"/>
	<path class="st1" d="M788.2,1199.7c0-2.6,0-4.8-0.2-6.8h3.5l0.2,4.3h0.1c1-2.9,3.4-4.8,6.1-4.8c0.4,0,0.7,0,1.1,0.1v3.7
		c-0.4-0.1-0.8-0.1-1.3-0.1c-2.8,0-4.8,2.1-5.3,5c-0.1,0.5-0.1,1.2-0.1,1.8v11.6h-4V1199.7z"/>
	<path class="st1" d="M830.7,1208.6c0,2.3,0,4.3,0.2,6h-3.5l-0.2-3.6H827c-1,1.8-3.3,4-7.2,4c-3.4,0-7.5-1.9-7.5-9.5v-12.7h4v12
		c0,4.1,1.3,7,4.9,7c2.7,0,4.5-1.8,5.2-3.6c0.2-0.5,0.4-1.3,0.4-2v-13.3h4V1208.6z"/>
	<path class="st1" d="M836.7,1210.6c1.2,0.7,3.3,1.5,5.3,1.5c2.8,0,4.2-1.4,4.2-3.2c0-1.9-1.1-2.9-4-4c-4-1.4-5.8-3.6-5.8-6.2
		c0-3.5,2.9-6.4,7.5-6.4c2.2,0,4.1,0.6,5.3,1.3l-0.9,2.9c-0.9-0.5-2.4-1.3-4.5-1.3c-2.3,0-3.6,1.3-3.6,3c0,1.8,1.3,2.6,4.1,3.7
		c3.7,1.4,5.7,3.3,5.7,6.5c0,3.9-3,6.6-8.1,6.6c-2.4,0-4.6-0.6-6.1-1.5L836.7,1210.6z"/>
	<path class="st1" d="M857.3,1204.5c0.1,5.3,3.5,7.6,7.5,7.6c2.8,0,4.6-0.5,6-1.1l0.7,2.8c-1.4,0.6-3.8,1.4-7.3,1.4
		c-6.7,0-10.7-4.5-10.7-11c0-6.6,3.9-11.7,10.2-11.7c7.1,0,9,6.2,9,10.2c0,0.8,0,1.4-0.1,1.8H857.3z M868.9,1201.6
		c0-2.5-1-6.4-5.5-6.4c-4,0-5.8,3.6-6.1,6.4H868.9z"/>
	<path class="st1" d="M876.1,1212.3c0-1.6,1.1-2.8,2.7-2.8s2.7,1.2,2.7,2.8c0,1.6-1.1,2.8-2.7,2.8
		C877.2,1215.1,876.1,1213.9,876.1,1212.3z"/>
</g>
<g>
	<g>
		<path class="st1" d="M1561.8,1521.9l-3.4-10.6c-1.6-3.5-10.1-15-12.8-17.9c-1.6-1.8-3.8-3.3-5.9-5c-2.3-1.9-4.1-2.9-6.1-4.9
			c-1.9-1.9-12.5-6.3-15.8-7.1c-6.8-1.6-10.7-2.8-15.2-3.3l-3.9-0.3c-1.8,0-3.9,0-6.3,0.2c0.1-4.3,0.3-8.4,0.4-12.8
			c0.1-2.5-3.8-2.6-3.9-0.1c-0.1,4.4-0.3,8.7-0.4,13.2c-2.2,0.2-4.2,0.2-6.5,0.3c-5.8,0.3-2.7-1.3-6.4-3.2c-1.5-0.7-6,0.2-7.8,0.5
			c-8.3,1.2-14.4,1.5-23.2,3.4c-5.2,1.1-11.1,0.5-16,1.8l-23.1,4.2c-2.9,0.5-5.3,0.1-6.7,3c1,2.7,2.6,2.1,7.6,5.4
			c2.9,1.9,4.4,3.7,8,5.2l23.3,6.3c5.3,0.9-1.7,2,4.6,6.6c1.5,1.1,2.1,1.7,3.6,2.6c3.6,2.2,11.1,5.6,13.2,7.2l5.6,4.4
			c0.2,0.3,0.5,0.4,0.7,0.7l-1.5,0.1c-4.5,0.2-8.9,0.3-13.4,0.4c0-1.7-0.1-3.4-0.1-5.2c-0.1-3.8-6-3.7-5.9,0.1
			c0.2,7.9,0.3,15.8,0.5,23.8c0.1,3.8,6,3.7,5.9-0.1c-0.1-4.2-0.2-8.5-0.3-12.7c4.3-0.1,8.5-0.2,12.8-0.3l1.6,0l0,0.1
			c-1.3,3.2-3.6,5.5-5.1,9.8c-0.5,1.5-2.8,6.6-3.5,7.1l-14.1,3c-2.6,0.2-5.1,0.6-7.7,0.8c-3.5,0.3-4-1.7-5.5-3.6
			c-1.5-1.9-2.5-4.1-5.9-3.6c-8.9,1.3-14.9,7.7-18.3,9.9c-0.9,0.6-1.6,1.3-1.9,1.5c-0.5,0.5-1.3,1.2-1.9,2.8
			c-2.4,6.1-4.3,9.6-5.6,17.2c-0.6,3.6-0.3,4.6,1.6,6.8l4.2,5.6c6.1,5.9,8.3,4.9,17.5,4.6c1.6-0.1,2.8,0,4-0.1
			c2.8-0.2,5-0.6,7.9-0.5c2.6,0.1,5.1,0.3,8.1,0.4c3,0.1,5.1-0.4,7.9-0.5c2.7-0.1,5.2,0.2,7.8,0.1c2.7-0.2,4.7-0.7,7.6-0.9
			c2.7-0.2,5.1-0.1,7.7-0.2c7.9-0.4,9.2,0.1,15.6,0l31.7-0.4c2.3-0.1,5.7-0.5,8.2,0.2l10.7,0.2c2.4-0.1,6.1-3.2,7.7-4.9
			c6.5-6.9,3.5-5.1,6.5-10.7c1.4-2.6,1.9-6.6,2.7-9.7c1-4.1,1.8-5.6,3.1-8.9c1.7-4.1,1.3-5.2,2.2-9.2c0.9-3.8,1.9-5.7,2.8-9.5
			C1561.7,1531.5,1562.1,1525.5,1561.8,1521.9z M1416.8,1490.6c-4.3-1.3-6.4-4.3-10-6.2l8-1.4c9-0.7,10.8-2.4,16.6-3.2
			c2.8-0.4,5.7-0.4,8.8-0.8l29.8-4.2c1.9-0.2,3,0,4.8,0l1.4,4.3c2.1,7.1,0.7,4.6-3.3,7.9c-2.9,2.3-2.4,2.9-2.7,4.7
			c4.1,2.1,7.1,1.9,9,2.5c5.9,1.8,4,0.7,8.5,1.8c1.2,0.3,7.1,7.7,7.5,8.8c1.7,4.6,0.1,5.6-3.3,5.5c-6.4-0.2-3.3,0.2-10.2-1.5
			c-16.3-4-11-6.4-14-7.1c-9.7-2.4-15.1-2.9-24.3-4.6C1431.8,1494.9,1428.7,1494.1,1416.8,1490.6z M1462.6,1514.5
			c-4.5-3.7-7.1-4.3-12.1-7.1c-1.5-0.9-4.9-2.6-6.1-3.8c-1.1-1.1-0.8-0.6-0.6-2.2c1.9-0.4,8.9,0.9,11.9,2.8c1.4,1,2.7,2,4.1,3.1
			c3.2,2.5,2.9,1.3,8.6,6.3c4.1,3.5,7.5,5,8.8,7.6l-7.4,0.3C1468.5,1518.1,1464,1515.6,1462.6,1514.5z M1423.8,1545
			c9.3,10.2,3.6,7.4,19.6,6.7c2.1-0.1,9.7-2.4,11.8-2.6c6.5-0.7,2.8,1.5,7.9-9c1.3-2.7,1.4-3.8,3-6.1c2-2.9,2.6-4.1,3.1-6.2l0-0.1
			l7.8-0.2l0,0.1c-0.3,1-0.8,2.1-1.3,3.3c-1.9,4-2,5.8-5.4,11.4c-1.4,2.4-2.6,4.2-3.9,7c-4.5,9.7-1.9,5.9-12,7.2
			c-2.8,0.4-4.8,0.4-7.5,1c-3.5,0.8-12.4,2.3-15.4,1.5c-1.5-0.4-9.3-9.5-12.9-11.5C1420.6,1545.6,1420.9,1546.5,1423.8,1545z
			 M1408.4,1568.1l-2.4,15.6c-2.2-0.7-3.4-2.9-4.5-4.7c-1.3-2.2-2.9-2.7-2.1-6.2c2.1-8.7,1.9-12.1,6.6-17.4c0.7,0.8,2.2,4.2,2.7,5.4
			C1410,1564.1,1409.2,1564,1408.4,1568.1z M1409.8,1583.2c0.9-3.5,1.7-9.3,2-12.5l1.3-9.4l-3.8-8.3c1.6-1.5,3.6-3.4,5.7-4.2
			c3.9,4.3,8.9,8.1,9.9,9.3c1.5,1.8,0.9,2.1,0.9,2.1c-0.1,2.9-2.4,10.4-4,12.1C1420.2,1574.1,1411.2,1582.6,1409.8,1583.2z
			 M1553.6,1545.8c-0.6,4.8-1.5,6.2-3.3,10.6c-1.6,3.6-2,8-3.2,11.9c-0.9,3-2.1,7.5-4.5,9.8c-1.9,1.9-4.7,5.3-7,5.9l-13.1-0.4
			c-1.6,0.2-4.8,0-6.6,0.1l-7,0.1c-6.3,0.7-20.6,0.5-27.4,0.2l-20.5,0.4c-2.6,0.2-4.1,0.6-6.5,0.8c-2.3,0.2-4.7-0.3-6.8-0.2
			c-2.3,0.1-4.3,0.4-6.7,0.6c-4.6,0.4-9.3-0.8-13.9-0.3l-13.8,0.6c3.1-3.4,6.5-5.6,9.7-9.2c2.1-2.4,2.7-1.5,4.1-5.5
			c1.1-3.1,1.8-5.2,2.6-8.5c6.1,1.5,18-1.7,23.2-2.1c5.6-0.4,13.2,0.5,15.3-4.7c0.5-1.1,0.6-2,1.1-3.1c2.5-5.6,9.8-17,11.9-25.2
			l0-0.1c3.6-0.1,7.3-0.2,10.9-0.3c6.9-0.2,15.6-1.7,22.2,0.1c8.4,2.2,7.7,12.3,7.9,19.3c0.1,3.8,6,3.7,5.9-0.1
			c-0.4-13.7-2.5-25-18.3-25.6c-9.4-0.3-18.9-0.1-28.4,0.2c0,0,0-0.1,0-0.1c-2.9-7.5-10.3-8.5-11.7-11.8c5.1,1.7,11.5,4.7,18,5.2
			c4.6,0.4,12.7,1.6,12.2-6.7c-0.3-5.2-2.6-7.1-4.8-9.4c-2.7-2.7-2.4-5.8-9.4-6.9l-8.9-1.7c2.3-2.1,6.8-2.3,3.3-11.7l19.9-0.8
			c6.3,0.5,26.5,5.1,31.7,10.3c2,2,5.2,3.8,7.6,5.8c6.9,5.9,5.6,6.2,8.8,10.3c2.2,2.8,6.1,7.4,7.2,10.9c0.8,2.7,2.2,5.9,2.6,8.9
			C1559,1531.9,1554.4,1539.9,1553.6,1545.8z"/>
		<path class="st1" d="M1533.2,1495.1c-2-1.7-2.3-1.9-5.8-2.8c-0.6,1.1-0.6,0.7-0.9,1.6c-0.5,1.8,2,2.6,3.3,3.6
			c1.4,1.1,2.6,2.2,4.1,3.5c2.5,2.1,5.6,5,7.6,7.3c2.6,3,6.8,9,6.9,13.2c0.1,2.6-1.3,4.8,1.4,5.5c3.2,0.8,3.2-6.2,1.5-10.2
			C1547.2,1506.9,1541.6,1502.2,1533.2,1495.1z"/>
		<path class="st1" d="M1472.7,1576.2c-4.1,0.4-12.9,0-16.7,0.4c-2,0.3-1.5,0.2-2.8,1.6c0.9,3.4,1.1,2.5,11.5,2.1
			c4.3-0.2,12.2,0.9,12.9-2.2C1478.3,1575.4,1474.3,1576.1,1472.7,1576.2z"/>
	</g>
	<g>
		<path class="st1" d="M1334.3,1659.7c0,0.3,0.1,0.5,0.6,0.8c0.7,0.4,1,0.9,1,1.7c0,1.2-1,2.1-2.2,2.1c-1.4,0-2.4-1.2-2.4-2.9
			c0-2.1,1.4-3.9,3.5-4.4l1.3,1.4C1335,1658.6,1334.3,1659.1,1334.3,1659.7z M1339.9,1659.7c0,0.3,0.1,0.5,0.6,0.8
			c0.6,0.4,1,0.9,1,1.7c0,1.2-1,2.1-2.2,2.1c-1.4,0-2.4-1.2-2.4-2.9c0-2.1,1.4-3.9,3.4-4.4l1.3,1.4
			C1340.5,1658.6,1339.9,1659.1,1339.9,1659.7z"/>
		<path class="st1" d="M1347.8,1677.5c-1.7,0-3.1-0.2-4.1-0.7c-1.1-0.4-1.9-1.1-2.4-1.8c-0.6-0.8-0.9-1.7-1-2.7
			c-0.1-1,0-2.1,0.3-3.3c0.3-1.1,0.8-2.2,1.4-3.2s1.5-1.9,2.5-2.6c1-0.7,2.1-1.3,3.4-1.8c1.3-0.4,2.7-0.7,4.3-0.7
			c0.8,0,1.7,0.1,2.6,0.2c0.9,0.2,1.9,0.5,3,0.9c-0.1,0.4-0.2,0.7-0.4,1c-0.1,0.3-0.3,0.6-0.5,1c-0.2,0.3-0.4,0.7-0.6,1
			c-0.2,0.4-0.5,0.8-0.9,1.2c-0.7-0.3-1.4-0.5-2.1-0.6c-0.6-0.1-1.2-0.2-1.7-0.2c-0.8,0-1.5,0.1-2,0.3c-0.6,0.2-1.1,0.5-1.5,0.8
			c-0.4,0.4-0.8,0.8-1,1.2c-0.3,0.5-0.5,0.9-0.6,1.4c-0.3,1.4-0.3,2.4,0.3,3.1c0.5,0.7,1.4,1,2.7,1h0.6l1.1-4.6
			c0.6-0.1,1.1-0.2,1.6-0.2c0.5,0,0.9-0.1,1.3-0.1c0.8,0,1.8,0.1,2.8,0.3l-2,7.9c-0.7,0.2-1.7,0.5-3,0.7
			C1350.9,1677.3,1349.4,1677.5,1347.8,1677.5z"/>
		<path class="st1" d="M1364,1670.7c0,0.9,0.3,1.5,0.9,1.8c0.6,0.4,1.4,0.5,2.4,0.5c0.7,0,1.5-0.1,2.3-0.2c0.9-0.1,1.8-0.4,2.7-0.7
			c0.2,0.5,0.3,1.2,0.4,1.9c0.1,0.7,0,1.5-0.2,2.3c-2.3,0.7-4.5,1-6.6,1c-1.7,0-3.1-0.2-4.2-0.6c-1.1-0.4-1.9-1-2.5-1.7
			c-0.6-0.7-0.9-1.6-1-2.6c-0.1-1,0-2.1,0.3-3.3c0.3-1.2,0.8-2.3,1.4-3.3c0.6-1,1.4-1.9,2.4-2.7c0.9-0.8,2-1.4,3.3-1.8
			c1.2-0.4,2.6-0.7,4.1-0.7c1.2,0,2.3,0.2,3.2,0.6c0.9,0.4,1.6,0.9,2.1,1.5c0.5,0.7,0.8,1.4,1,2.4c0.1,0.9,0.1,1.9-0.2,3
			c-0.1,0.6-0.3,1.1-0.5,1.5c-0.2,0.4-0.3,0.8-0.4,1.1H1364z M1368.4,1664.6c-0.7,0-1.4,0.2-2.1,0.6c-0.6,0.4-1.1,1.1-1.4,1.9h5.6
			c0.1-0.7,0-1.3-0.3-1.8C1369.8,1664.8,1369.2,1664.6,1368.4,1664.6z"/>
		<path class="st1" d="M1382,1670.7c0,0.9,0.3,1.5,0.9,1.8c0.6,0.4,1.4,0.5,2.4,0.5c0.7,0,1.5-0.1,2.3-0.2c0.9-0.1,1.8-0.4,2.7-0.7
			c0.2,0.5,0.3,1.2,0.4,1.9c0.1,0.7,0,1.5-0.2,2.3c-2.3,0.7-4.5,1-6.6,1c-1.7,0-3.1-0.2-4.2-0.6c-1.1-0.4-1.9-1-2.5-1.7
			c-0.6-0.7-0.9-1.6-1-2.6c-0.1-1,0-2.1,0.3-3.3c0.3-1.2,0.8-2.3,1.4-3.3c0.6-1,1.4-1.9,2.4-2.7c0.9-0.8,2-1.4,3.3-1.8
			c1.2-0.4,2.6-0.7,4.1-0.7c1.2,0,2.3,0.2,3.2,0.6c0.9,0.4,1.6,0.9,2.1,1.5c0.5,0.7,0.8,1.4,1,2.4c0.1,0.9,0.1,1.9-0.2,3
			c-0.1,0.6-0.3,1.1-0.5,1.5c-0.2,0.4-0.3,0.8-0.4,1.1H1382z M1386.4,1664.6c-0.7,0-1.4,0.2-2.1,0.6c-0.6,0.4-1.1,1.1-1.4,1.9h5.6
			c0.1-0.7,0-1.3-0.3-1.8C1387.8,1664.8,1387.2,1664.6,1386.4,1664.6z"/>
		<path class="st1" d="M1397.4,1661c0.5-0.1,1.1-0.2,1.6-0.2c0.5,0,1-0.1,1.5-0.1c0.4,0,0.9,0,1.4,0.1c0.5,0,1,0.1,1.5,0.2l-4,16
			c-0.6,0.1-1.2,0.2-1.7,0.2c-0.5,0-0.9,0-1.3,0c-0.4,0-0.8,0-1.3,0c-0.5,0-1-0.1-1.6-0.2L1397.4,1661z M1408,1661
			c0.4-0.1,1-0.1,1.6-0.2c0.6,0,1.2-0.1,1.6-0.1c0.6,0,1.2,0,1.8,0.1c0.6,0,1.1,0.1,1.4,0.2l-6.2,7.5l2.7,8.6
			c-0.4,0.1-1,0.1-1.6,0.2c-0.6,0-1.2,0.1-1.7,0.1c-0.6,0-1.2,0-1.8-0.1c-0.6,0-1-0.1-1.4-0.2l-2.6-8.3L1408,1661z"/>
		<g>
			<path class="st1" d="M1427.6,1677.1c-0.6,0.1-1.2,0.1-1.7,0.2c-0.5,0-1,0.1-1.3,0.1c-0.4,0-0.8,0-1.3-0.1c-0.5,0-1-0.1-1.6-0.2
				l4-16.1c0.5-0.1,1.1-0.2,1.6-0.2c0.5,0,1-0.1,1.5-0.1c0.4,0,0.9,0,1.4,0.1c0.5,0,1,0.1,1.5,0.2L1427.6,1677.1z"/>
			<path class="st1" d="M1437.6,1665.4h-5.2c0-0.4,0-0.8,0.1-1.2c0.1-0.4,0.1-0.7,0.2-1s0.2-0.7,0.3-1c0.1-0.4,0.3-0.7,0.5-1.2h16.3
				c0,0.4,0,0.8-0.1,1.2c-0.1,0.4-0.1,0.7-0.2,1s-0.2,0.7-0.3,1c-0.1,0.4-0.3,0.8-0.5,1.2h-5.2l-2.9,11.7c-0.6,0.1-1.2,0.1-1.7,0.2
				c-0.5,0-1,0.1-1.3,0.1c-0.4,0-0.8,0-1.3-0.1c-0.5,0-1-0.1-1.6-0.2L1437.6,1665.4z"/>
		</g>
		<g>
			<path class="st1" d="M1470.6,1676.4c-0.4,0.1-0.9,0.2-1.5,0.4s-1.2,0.2-1.8,0.4c-0.7,0.1-1.3,0.2-2,0.3c-0.7,0.1-1.3,0.1-2,0.1
				c-1.2,0-2.3-0.1-3.4-0.2c-1.1-0.2-1.9-0.5-2.6-1c-0.7-0.5-1.2-1.2-1.4-2.2c-0.3-1-0.2-2.3,0.2-3.9l2.3-9.1
				c0.5-0.1,1.1-0.2,1.6-0.2c0.5,0,1-0.1,1.5-0.1c0.4,0,0.9,0,1.4,0.1c0.5,0,1,0.1,1.5,0.2l-2.2,8.7c-0.3,1.2-0.3,2.1,0.1,2.6
				c0.4,0.5,1,0.7,2,0.7c0.4,0,0.7,0,0.9,0c0.2,0,0.4,0,0.5-0.1l2.9-11.8c0.5-0.1,1.1-0.2,1.6-0.2c0.5,0,1-0.1,1.5-0.1
				c0.4,0,0.9,0,1.4,0.1c0.5,0,1,0.1,1.5,0.2L1470.6,1676.4z"/>
			<path class="st1" d="M1477.5,1661.1c1.1-0.1,2.2-0.3,3.4-0.3c1.2-0.1,2.3-0.1,3.3-0.1c1.1,0,2.1,0.1,3.1,0.3c1,0.2,1.8,0.5,2.5,1
				c0.7,0.5,1.2,1.1,1.5,1.9c0.3,0.8,0.3,1.9,0,3.2c-0.3,1.2-0.8,2.2-1.4,3c-0.7,0.8-1.4,1.5-2.3,2c-0.9,0.5-1.8,0.9-2.8,1.1
				c-1,0.2-2,0.3-3,0.3c-0.4,0-0.7,0-1,0c-0.3,0-0.4,0-0.5-0.1l-1,3.8c-0.6,0.1-1.2,0.2-1.7,0.2c-0.5,0-0.9,0-1.3,0
				c-0.4,0-0.8,0-1.3,0c-0.4,0-1-0.1-1.5-0.2L1477.5,1661.1z M1481.2,1669.3c0.1,0,0.3,0,0.4,0c0.2,0,0.3,0,0.4,0
				c0.8,0,1.5-0.2,2.2-0.5c0.6-0.4,1-1,1.3-1.9c0.2-0.7,0.1-1.3-0.4-1.7c-0.4-0.4-1-0.6-1.8-0.6c-0.1,0-0.2,0-0.4,0
				c-0.2,0-0.4,0-0.6,0L1481.2,1669.3z"/>
		</g>
		<g>
			<path class="st1" d="M1497.9,1671.8c0.3-1,0.7-1.9,1.4-2.5c0.7-0.7,1.4-1.2,2.3-1.6c0.9-0.4,1.8-0.7,2.8-0.8
				c1-0.2,1.9-0.2,2.8-0.2h2.1c0.1-0.4,0-0.7-0.1-0.9c-0.1-0.3-0.4-0.4-0.7-0.6c-0.3-0.1-0.6-0.2-1-0.3c-0.4-0.1-0.8-0.1-1.2-0.1
				c-0.6,0-1.2,0.1-2,0.2c-0.8,0.1-1.6,0.3-2.5,0.5c-0.1-0.4-0.2-0.7-0.3-1c-0.1-0.3-0.1-0.6-0.1-0.9c0-0.3,0-0.6,0.1-0.9
				c0-0.3,0.1-0.7,0.2-1.1c1.2-0.3,2.4-0.6,3.5-0.7c1.2-0.2,2.2-0.2,3.1-0.2c1.2,0,2.3,0.1,3.2,0.4c0.9,0.3,1.7,0.7,2.2,1.2
				c0.6,0.5,0.9,1.2,1.1,2.1s0.1,1.8-0.2,3l-2.3,9.1c-0.9,0.2-2.1,0.5-3.4,0.7c-1.3,0.2-2.7,0.3-4.1,0.3c-1.2,0-2.3-0.1-3.3-0.3
				c-1-0.2-1.8-0.5-2.4-0.9c-0.6-0.4-1-1-1.3-1.7C1497.7,1673.8,1497.7,1672.9,1497.9,1671.8z M1505.8,1673.6c0.2,0,0.5,0,0.9-0.1
				c0.4,0,0.7-0.1,0.9-0.1l0.9-3.4h-2c-0.8,0-1.5,0.2-2.2,0.5c-0.6,0.3-1,0.7-1.2,1.3c-0.1,0.4-0.1,0.7,0.1,1
				c0.2,0.2,0.4,0.4,0.7,0.5c0.3,0.1,0.6,0.2,1,0.2C1505.2,1673.6,1505.5,1673.6,1505.8,1673.6z"/>
		</g>
		<g>
			<path class="st1" d="M1616.6,1664.5l-1.3-1.4c1.1-0.3,1.8-0.8,1.8-1.4c0-0.3-0.1-0.5-0.6-0.8c-0.7-0.4-1-0.9-1-1.7
				c0-1.2,0.9-2.1,2.1-2.1c1.4,0,2.5,1.2,2.5,2.9C1620.1,1662.2,1618.7,1664,1616.6,1664.5z M1622.2,1664.5l-1.3-1.4
				c1.1-0.3,1.7-0.8,1.7-1.4c0-0.3-0.1-0.5-0.6-0.8c-0.7-0.4-1-0.9-1-1.7c0-1.2,0.9-2.1,2.1-2.1c1.4,0,2.4,1.2,2.4,2.9
				C1625.6,1662.2,1624.2,1664,1622.2,1664.5z"/>
			<path class="st1" d="M1533.3,1660.7c1,0,2,0.1,3,0.2c1,0.2,1.8,0.5,2.5,1c0.7,0.5,1.2,1.2,1.5,2.1c0.3,0.9,0.2,2.2-0.1,3.7
				l-2.3,9.3c-0.6,0.1-1.2,0.2-1.7,0.2c-0.5,0-0.9,0-1.3,0c-0.4,0-0.8,0-1.3,0c-0.5,0-1-0.1-1.6-0.2l2.2-8.8
				c0.3-1.1,0.2-1.9-0.1-2.4c-0.3-0.5-1-0.7-2-0.7c-0.3,0-0.5,0-0.8,0.1c-0.3,0-0.5,0.1-0.6,0.1l-2.9,11.6c-0.6,0.1-1.2,0.2-1.7,0.2
				c-0.5,0-0.9,0-1.3,0c-0.4,0-0.8,0-1.3,0c-0.5,0-1-0.1-1.6-0.2l3.8-15.3c0.9-0.2,1.9-0.5,3.2-0.7
				C1530,1660.8,1531.5,1660.7,1533.3,1660.7z"/>
			<path class="st1" d="M1541.9,1669.1c0.3-1.3,0.8-2.4,1.4-3.5c0.6-1,1.4-1.9,2.4-2.7c0.9-0.7,2-1.3,3.3-1.7c1.2-0.4,2.6-0.6,4-0.6
				c1.5,0,2.8,0.2,3.8,0.6c1,0.4,1.8,1,2.4,1.7c0.6,0.7,0.9,1.6,1,2.7c0.1,1,0,2.2-0.3,3.5c-0.3,1.2-0.8,2.4-1.4,3.4
				c-0.6,1-1.4,1.9-2.4,2.6c-0.9,0.7-2,1.3-3.2,1.7c-1.2,0.4-2.6,0.6-4.1,0.6c-1.5,0-2.7-0.2-3.7-0.6c-1-0.4-1.8-1-2.4-1.7
				c-0.6-0.7-0.9-1.6-1.1-2.6C1541.5,1671.5,1541.6,1670.4,1541.9,1669.1z M1553.9,1669.1c0.3-1.3,0.3-2.3,0-3.1
				c-0.3-0.7-1-1.1-2-1.1s-1.9,0.4-2.5,1.1c-0.7,0.7-1.2,1.7-1.5,3.1c-0.3,1.3-0.3,2.3,0,3c0.3,0.7,1,1.1,2,1.1c1,0,1.9-0.4,2.6-1.1
				C1553.1,1671.4,1553.6,1670.4,1553.9,1669.1z"/>
			<path class="st1" d="M1566.7,1665.4h-5.2c0-0.4,0-0.8,0.1-1.2c0.1-0.4,0.1-0.7,0.2-1s0.2-0.7,0.3-1c0.1-0.4,0.3-0.7,0.5-1.2h16.3
				c0,0.4,0,0.8-0.1,1.2c-0.1,0.4-0.1,0.7-0.2,1s-0.2,0.7-0.3,1c-0.1,0.4-0.3,0.8-0.5,1.2h-5.2l-2.9,11.7c-0.6,0.1-1.2,0.1-1.7,0.2
				c-0.5,0-1,0.1-1.3,0.1s-0.8,0-1.3-0.1c-0.5,0-1-0.1-1.6-0.2L1566.7,1665.4z"/>
			<path class="st1" d="M1577.6,1669.1c0.3-1.2,0.8-2.4,1.4-3.4c0.7-1,1.5-1.9,2.4-2.7c1-0.7,2-1.3,3.3-1.7c1.2-0.4,2.6-0.6,4-0.6
				c0.5,0,1,0,1.4,0c0.4,0,0.9,0.1,1.3,0.1c0.4,0.1,0.8,0.2,1.3,0.3c0.4,0.1,0.9,0.3,1.4,0.5c-0.1,0.7-0.4,1.4-0.7,2.1
				c-0.4,0.7-0.8,1.4-1.4,2c-0.4-0.1-0.7-0.2-1-0.3c-0.3-0.1-0.6-0.1-0.9-0.2c-0.3,0-0.5-0.1-0.8-0.1c-0.3,0-0.6,0-0.9,0
				c-1.1,0-2.1,0.3-3,0.9c-0.9,0.6-1.5,1.6-1.9,3.1c-0.2,0.8-0.2,1.4-0.1,1.9c0.1,0.5,0.3,0.9,0.6,1.2s0.7,0.5,1.1,0.6
				c0.4,0.1,0.9,0.2,1.5,0.2c0.7,0,1.3-0.1,1.8-0.2c0.5-0.1,1.2-0.3,1.9-0.5c0.3,0.6,0.4,1.2,0.5,1.9c0.1,0.7,0,1.5-0.2,2.4
				c-1.2,0.4-2.2,0.6-3.1,0.7c-0.9,0.1-1.8,0.2-2.7,0.2c-1.5,0-2.8-0.2-3.8-0.6c-1-0.4-1.9-1-2.5-1.7c-0.6-0.7-1-1.6-1.1-2.6
				C1577.2,1671.5,1577.3,1670.4,1577.6,1669.1z"/>
			<path class="st1" d="M1604.7,1671.2h-5.2l-1.5,5.9c-0.6,0.1-1.2,0.1-1.7,0.2c-0.5,0-1,0.1-1.3,0.1c-0.4,0-0.8,0-1.3-0.1
				c-0.5,0-1-0.1-1.6-0.2l4-16.1c0.5-0.1,1.1-0.2,1.6-0.2c0.5,0,1-0.1,1.5-0.1c0.4,0,0.9,0,1.4,0.1c0.5,0,1,0.1,1.5,0.2l-1.4,5.5
				h5.2l1.4-5.5c0.5-0.1,1.1-0.2,1.6-0.2c0.5,0,1-0.1,1.5-0.1c0.4,0,0.9,0,1.4,0.1c0.5,0,1,0.1,1.5,0.2l-4,16.1
				c-0.6,0.1-1.2,0.1-1.7,0.2c-0.5,0-1,0.1-1.3,0.1s-0.8,0-1.3-0.1c-0.5,0-1-0.1-1.6-0.2L1604.7,1671.2z"/>
		</g>
	</g>
	<g>
		<path class="st1" d="M1299.9,1598.9c2.5,0,4.9,0.2,7.3,0.6c2.4,0.4,4.6,1.2,6.7,2.3c1.6-0.8,3.4-1.4,5.5-2
			c2.1-0.6,4.5-0.9,7.1-0.9c2.3,0,4.8,0.2,7.3,0.7c2.5,0.4,4.8,1.4,6.8,2.8c2,1.4,3.7,3.4,5,6.1c1.3,2.6,1.9,6.2,1.9,10.5v26.4
			c-1.6,0.3-3,0.5-4.2,0.6c-1.3,0.1-2.4,0.1-3.3,0.1c-1,0-2.2,0-3.4-0.1c-1.3-0.1-2.7-0.3-4.2-0.6v-24.8c0-3.1-0.5-5.4-1.6-6.7
			c-1.1-1.4-2.9-2-5.3-2c-0.8,0-1.7,0.1-2.5,0.3c-0.8,0.2-1.4,0.3-1.7,0.4c0.5,2.1,0.8,4.4,0.8,7.1v25.8c-1.6,0.3-3,0.5-4.2,0.6
			c-1.3,0.1-2.4,0.1-3.3,0.1c-1,0-2.2,0-3.4-0.1c-1.3-0.1-2.7-0.3-4.2-0.6v-24.8c0-3.1-0.5-5.4-1.5-6.7c-1-1.4-2.8-2-5.2-2
			c-0.7,0-1.4,0.1-2.1,0.2c-0.8,0.1-1.2,0.2-1.4,0.4v33c-1.6,0.3-3,0.5-4.2,0.6c-1.3,0.1-2.4,0.1-3.3,0.1c-1,0-2.2,0-3.4-0.1
			c-1.3-0.1-2.7-0.3-4.2-0.6V1602c2.1-0.7,4.6-1.4,7.6-2.1C1291.6,1599.2,1295.4,1598.9,1299.9,1598.9z"/>
		<path class="st1" d="M1411.5,1612.2h-13.4c-0.3-1.2-0.5-2.3-0.6-3.3c-0.1-1-0.1-2-0.1-3c0-0.9,0-1.9,0.1-2.9
			c0.1-1,0.3-2.1,0.6-3.3h42c0.3,1.2,0.5,2.3,0.6,3.3c0.1,1,0.1,2,0.1,2.9c0,0.9,0,1.9-0.1,3c-0.1,1-0.3,2.1-0.6,3.3h-13.4v33.1
			c-1.6,0.2-3,0.4-4.2,0.5c-1.3,0.1-2.4,0.2-3.4,0.2c-1,0-2.2-0.1-3.4-0.2c-1.3-0.1-2.7-0.3-4.2-0.5V1612.2z"/>
		<path class="st1" d="M1350.6,1622.8c0-3.6,0.5-6.9,1.5-9.8c1-3,2.5-5.5,4.4-7.6c2-2.1,4.4-3.8,7.3-4.9c2.9-1.1,6.2-1.7,10-1.7
			c3.9,0,7.2,0.6,10.1,1.7c2.9,1.1,5.3,2.8,7.3,4.9c2,2.1,3.4,4.7,4.4,7.6c1,3,1.5,6.3,1.5,9.8c0,3.5-0.5,6.8-1.5,9.7
			c-1,2.9-2.5,5.4-4.4,7.5c-2,2.1-4.4,3.7-7.3,4.8c-2.9,1.1-6.3,1.7-10.1,1.7c-3.8,0-7.1-0.6-10-1.7c-2.9-1.1-5.3-2.7-7.3-4.8
			c-2-2.1-3.4-4.6-4.4-7.5C1351.1,1629.6,1350.6,1626.3,1350.6,1622.8z M1381.7,1622.8c0-3.8-0.6-6.7-1.9-8.7c-1.3-2-3.3-3-5.9-3
			c-2.7,0-4.6,1-5.9,3c-1.3,2-1.9,4.9-1.9,8.7c0,3.7,0.6,6.6,1.9,8.6c1.3,2,3.2,3,5.9,3c2.6,0,4.6-1,5.9-3
			C1381,1629.4,1381.7,1626.5,1381.7,1622.8z"/>
		<path class="st1" d="M1441.2,1622.8c0-3.6,0.5-6.9,1.5-9.8c1-3,2.5-5.5,4.4-7.6c2-2.1,4.4-3.8,7.3-4.9c2.9-1.1,6.2-1.7,10-1.7
			c3.9,0,7.2,0.6,10.1,1.7c2.9,1.1,5.3,2.8,7.3,4.9c2,2.1,3.4,4.7,4.4,7.6c1,3,1.5,6.3,1.5,9.8c0,3.5-0.5,6.8-1.5,9.7
			c-1,2.9-2.5,5.4-4.4,7.5c-2,2.1-4.4,3.7-7.3,4.8c-2.9,1.1-6.3,1.7-10.1,1.7c-3.8,0-7.1-0.6-10-1.7c-2.9-1.1-5.3-2.7-7.3-4.8
			c-2-2.1-3.4-4.6-4.4-7.5C1441.7,1629.6,1441.2,1626.3,1441.2,1622.8z M1472.3,1622.8c0-3.8-0.6-6.7-1.9-8.7c-1.3-2-3.3-3-5.9-3
			c-2.7,0-4.6,1-5.9,3c-1.3,2-1.9,4.9-1.9,8.7c0,3.7,0.6,6.6,1.9,8.6c1.3,2,3.2,3,5.9,3c2.6,0,4.6-1,5.9-3
			C1471.7,1629.4,1472.3,1626.5,1472.3,1622.8z"/>
		<path class="st1" d="M1515.2,1646.5c-4.3,0-8-0.6-11.1-1.9c-3-1.3-5.5-3-7.5-5.2c-1.9-2.2-3.3-4.7-4.2-7.7
			c-0.9-2.9-1.3-6.1-1.3-9.4c0-3.2,0.5-6.3,1.6-9.2c1.1-2.9,2.6-5.4,4.7-7.5c2.1-2.1,4.7-3.8,7.7-5c3.1-1.2,6.6-1.9,10.7-1.9
			c2.1,0,4.4,0.2,7,0.7c2.5,0.5,5.3,1.3,8.3,2.5c-0.1,1-0.2,1.9-0.4,2.8s-0.4,1.8-0.7,2.7c-0.3,0.9-0.6,1.9-1,2.9
			c-0.4,1-0.9,2.2-1.4,3.5c-2-0.8-3.9-1.4-5.7-1.8c-1.7-0.4-3.3-0.6-4.5-0.6c-2,0-3.7,0.3-5.1,0.9c-1.4,0.6-2.5,1.4-3.3,2.4
			c-0.8,1-1.5,2.2-1.9,3.5c-0.4,1.3-0.6,2.7-0.6,4.1c0,3.9,0.9,6.8,2.6,8.7c1.7,1.9,4.3,2.8,7.7,2.8h1.6v-13c1.5-0.3,2.8-0.5,4-0.6
			c1.2-0.1,2.3-0.2,3.4-0.2c2.1,0,4.6,0.3,7.5,0.8v22.4c-1.7,0.6-4.2,1.4-7.3,2.1C1523,1646.1,1519.4,1646.5,1515.2,1646.5z"/>
		<path class="st1" d="M1552.2,1627.3c0.7,2.4,1.8,4.1,3.5,5.1c1.7,1,3.8,1.5,6.5,1.5c1.7,0,3.7-0.2,5.9-0.6c2.2-0.4,4.3-1,6.4-1.9
			c0.8,1.5,1.6,3.4,2.2,5.5c0.6,2.1,1,4.3,1,6.6c-5.4,1.9-10.8,2.9-16.4,2.9c-4.3,0-8.1-0.6-11.2-1.8c-3.1-1.2-5.6-2.8-7.6-4.9
			c-2-2.1-3.4-4.6-4.3-7.5c-0.9-2.9-1.4-6-1.4-9.4c0-3.4,0.5-6.5,1.4-9.4c1-2.9,2.4-5.5,4.3-7.7c1.9-2.2,4.3-3.9,7.2-5.2
			c2.9-1.3,6.3-1.9,10.1-1.9c3.2,0,6,0.5,8.5,1.6c2.5,1.1,4.6,2.5,6.4,4.4c1.7,1.9,3.1,4.1,4,6.7c0.9,2.6,1.4,5.5,1.4,8.5
			c0,1.6-0.1,3-0.2,4.3c-0.2,1.3-0.3,2.3-0.4,3.1H1552.2z M1559.4,1609.9c-1.9,0-3.6,0.6-5,1.8c-1.4,1.2-2.2,3-2.4,5.5h14.4
			c-0.1-2.1-0.8-3.8-1.9-5.2C1563.4,1610.6,1561.7,1609.9,1559.4,1609.9z"/>
		<path class="st1" d="M1598.8,1627.3c0.7,2.4,1.8,4.1,3.5,5.1c1.7,1,3.8,1.5,6.5,1.5c1.7,0,3.7-0.2,5.9-0.6c2.2-0.4,4.3-1,6.4-1.9
			c0.8,1.5,1.6,3.4,2.2,5.5c0.6,2.1,1,4.3,1,6.6c-5.4,1.9-10.8,2.9-16.4,2.9c-4.3,0-8.1-0.6-11.2-1.8c-3.1-1.2-5.6-2.8-7.6-4.9
			c-2-2.1-3.4-4.6-4.3-7.5c-0.9-2.9-1.4-6-1.4-9.4c0-3.4,0.5-6.5,1.4-9.4c1-2.9,2.4-5.5,4.3-7.7c1.9-2.2,4.3-3.9,7.2-5.2
			c2.9-1.3,6.3-1.9,10.1-1.9c3.2,0,6,0.5,8.5,1.6c2.5,1.1,4.6,2.5,6.4,4.4c1.7,1.9,3.1,4.1,4,6.7c0.9,2.6,1.4,5.5,1.4,8.5
			c0,1.6-0.1,3-0.2,4.3c-0.2,1.3-0.3,2.3-0.4,3.1H1598.8z M1606,1609.9c-1.9,0-3.6,0.6-5,1.8c-1.4,1.2-2.2,3-2.4,5.5h14.4
			c-0.1-2.1-0.8-3.8-1.9-5.2C1610,1610.6,1608.3,1609.9,1606,1609.9z"/>
		<path class="st1" d="M1630.5,1599.8c1.3-0.3,2.6-0.5,3.9-0.6c1.3-0.1,2.5-0.2,3.7-0.2c1.1,0,2.4,0.1,3.7,0.2
			c1.3,0.1,2.6,0.3,3.9,0.6v45.5c-1.6,0.3-3,0.5-4.2,0.6s-2.4,0.1-3.3,0.1c-1,0-2.2,0-3.4-0.1s-2.7-0.3-4.2-0.6V1599.8z
			 M1657.9,1599.8c1.1-0.2,2.4-0.4,4-0.5c1.6-0.1,2.9-0.2,4.2-0.2c1.6,0,3.1,0.1,4.7,0.2c1.6,0.1,2.9,0.3,3.8,0.5l-11.2,21.2
			l12.5,24.3c-1.1,0.2-2.4,0.4-4.1,0.5c-1.6,0.1-3,0.2-4.2,0.2c-1.6,0-3.1-0.1-4.7-0.2c-1.5-0.1-2.8-0.3-3.7-0.5l-12-23.7
			L1657.9,1599.8z"/>
	</g>
	<path class="st1" d="M1527.1,1444.4c-16.5-0.4-25,2.4-25.3,2.6c-1,0.3-1.5,1.4-1.2,2.4c0.3,1,1.4,1.5,2.4,1.2c0.1,0,8.3-2.7,24-2.4
		c16.1,0.4,25.6,3.2,25.6,5.6c0,0.4-0.9,4.1-28.7,3.5c-11.8-0.3-23.8-2.9-32-7.1c-8.7-4.4-21.3-7.2-33.6-7.5
		c-23-0.6-32.5,1.5-32.6,7.2c-0.2,7.3,15.9,9.2,29.3,9.5c16.5,0.4,25.3-2.8,25.7-2.9c1-0.4,1.5-1.5,1.1-2.5c-0.4-1-1.5-1.5-2.5-1.1
		c-0.1,0-8.6,3.1-24.3,2.7c-16.1-0.4-25.6-3.2-25.6-5.6c0-0.4,0.9-4.1,28.7-3.5c11.8,0.3,23.8,2.9,32,7.1c8.7,4.4,21.3,7.2,33.6,7.5
		c23,0.6,32.5-1.5,32.6-7.2C1556.6,1446.7,1540.6,1444.8,1527.1,1444.4z"/>
</g>
</svg>
